<svg width="36" height="36" viewBox="0 0 36 36" fill="none" xmlns="http://www.w3.org/2000/svg">
<path d="M34 0C35.1046 5.15404e-07 36 0.895431 36 2V34C36 35.1046 35.1046 36 34 36H23.8223V19.9092H28.3301L28.8105 14.4912H23.8223C23.8223 14.4912 23.8223 12.4683 23.8223 11.4053C23.8223 10.1283 24.0795 9.62305 25.3145 9.62305H28.8105V4H24.3369C19.529 4.00003 17.3614 6.11799 17.3613 10.1709V14.4912H14V19.9766H17.3613L17.3604 36H2C0.895431 36 8.05333e-09 35.1046 0 34V2C5.15413e-07 0.895431 0.895431 8.0532e-09 2 0H34Z" fill="black"/>
</svg>
