<svg width="31" height="31" viewBox="0 0 31 31" fill="none" xmlns="http://www.w3.org/2000/svg">
<path d="M15.499 2.79347C19.6375 2.79347 20.1274 2.80868 21.7625 2.88374C23.2738 2.95271 24.0944 3.20528 24.6412 3.41728C25.3644 3.69825 25.8807 4.034 26.4233 4.57666C26.966 5.11933 27.3017 5.63562 27.5827 6.35884C27.7947 6.90556 28.0473 7.72616 28.1163 9.23751C28.1903 10.8716 28.2065 11.3615 28.2065 15.501C28.2065 19.6395 28.1903 20.1294 28.1163 21.7645C28.0473 23.2759 27.7947 24.0965 27.5827 24.6422C27.3017 25.3664 26.966 25.8817 26.4233 26.4243C25.8807 26.967 25.3644 27.3027 24.6412 27.5837C24.0944 27.7957 23.2738 28.0483 21.7625 28.1173C20.1284 28.1913 19.6385 28.2075 15.499 28.2075C11.3595 28.2075 10.8706 28.1923 9.23548 28.1173C7.72413 28.0483 6.90354 27.7957 6.35783 27.5837C5.63359 27.3027 5.11832 26.967 4.57565 26.4243C4.03298 25.8817 3.69723 25.3654 3.41626 24.6422C3.20427 24.0965 2.95171 23.2759 2.88273 21.7645C2.80869 20.1304 2.79245 19.6405 2.79245 15.501C2.79245 11.3625 2.80869 10.8726 2.88273 9.23751C2.95171 7.72616 3.20427 6.90556 3.41626 6.35884C3.69723 5.63562 4.03298 5.11933 4.57565 4.57666C5.11832 4.034 5.63461 3.69825 6.35783 3.41728C6.90354 3.20528 7.72514 2.95271 9.23548 2.88374C10.8706 2.80868 11.3605 2.79347 15.499 2.79347ZM15.499 0C11.2895 0 10.7621 0.0182531 9.10869 0.0933137C7.45837 0.168374 6.33247 0.431085 5.34654 0.813488C4.32713 1.21009 3.46292 1.73957 2.60074 2.60175C1.73856 3.46292 1.20908 4.32815 0.813496 5.34755C0.430078 6.33348 0.168382 7.4604 0.0933214 9.1097C0.0172465 10.7631 0 11.2905 0 15.5C0 19.7095 0.0172465 20.2369 0.0933214 21.8903C0.168382 23.5406 0.431093 24.6665 0.813496 25.6524C1.20908 26.6718 1.73957 27.5361 2.60074 28.3982C3.46292 29.2604 4.32713 29.7899 5.34654 30.1865C6.33247 30.5689 7.45939 30.8316 9.10869 30.9067C10.7621 30.9817 11.2895 31 15.499 31C19.7085 31 20.2359 30.9817 21.8893 30.9067C23.5396 30.8316 24.6655 30.5689 25.6514 30.1865C26.6708 29.7909 27.535 29.2604 28.3972 28.3982C29.2584 27.5361 29.7889 26.6718 30.1855 25.6524C30.5689 24.6665 30.8306 23.5396 30.9057 21.8903C30.9807 20.2369 30.999 19.7095 30.999 15.5C30.999 11.2905 30.9817 10.7631 30.9057 9.1097C30.8306 7.45939 30.5679 6.33348 30.1855 5.34755C29.7889 4.32815 29.2594 3.46394 28.3972 2.60175C27.535 1.73957 26.6708 1.21009 25.6514 0.813488C24.6655 0.431085 23.5386 0.168374 21.8893 0.0933137C20.2359 0.0182531 19.7085 0 15.499 0Z" fill="black"/>
<path d="M15.499 7.54163C11.1029 7.54163 7.53955 11.105 7.53955 15.5011C7.53955 19.8972 11.1029 23.4605 15.499 23.4605C19.8951 23.4605 23.4585 19.8972 23.4585 15.5011C23.4585 11.105 19.8951 7.54163 15.499 7.54163ZM15.499 20.6671C12.6457 20.6671 10.332 18.3534 10.332 15.5001C10.332 12.6468 12.6447 10.3331 15.499 10.3331C18.3523 10.3331 20.666 12.6457 20.666 15.5001C20.666 18.3544 18.3523 20.6671 15.499 20.6671Z" fill="black"/>
<path d="M25.6332 7.22613C25.6332 8.25365 24.8004 9.08641 23.7729 9.08641C22.7454 9.08641 21.9126 8.25365 21.9126 7.22613C21.9126 6.19861 22.7454 5.36584 23.7729 5.36584C24.8004 5.36686 25.6332 6.19962 25.6332 7.22613Z" fill="black"/>
</svg>
