<svg width="31" height="31" viewBox="0 0 31 31" fill="none" xmlns="http://www.w3.org/2000/svg">
<path d="M28 0C29.6569 4.50979e-07 31 1.34315 31 3V28C31 29.6569 29.6569 31 28 31H3C1.34315 31 0 29.6569 0 28V3C4.50986e-07 1.34315 1.34315 0 3 0H28ZM2.99219 27.7227H8.61328V10.8105H2.99219V27.7227ZM22.415 10.4121C19.4266 10.4121 18.0942 12.0564 17.3467 13.2061V13.2617H17.3096C17.3193 13.2432 17.3352 13.2246 17.3467 13.2061V10.8096H11.7227C11.7977 12.394 11.723 27.6485 11.7227 27.7217H17.3457V18.2754C17.3457 17.7689 17.3844 17.2665 17.5322 16.9053C17.9406 15.8939 18.8636 14.8486 20.417 14.8486C22.4521 14.8488 23.2646 16.4011 23.2646 18.6729V27.7217H28.8877V18.0234C28.8877 12.8297 26.1146 10.4122 22.415 10.4121ZM5.83984 2.65723C3.91607 2.65723 2.65723 3.92016 2.65723 5.5791C2.65723 7.20261 3.87995 8.50195 5.76562 8.50195H5.80176C7.76258 8.50184 8.98241 7.20254 8.98242 5.5791C8.94611 3.92023 7.76436 2.65733 5.83984 2.65723Z" fill="black"/>
</svg>
