<svg width="32" height="26" viewBox="0 0 32 26" fill="none" xmlns="http://www.w3.org/2000/svg">
<path d="M0 22.421C2.826 24.233 6.182 25.29 9.787 25.29C21.641 25.29 28.338 15.278 27.934 6.298C29.181 5.399 30.264 4.27501 31.12 2.99301C29.974 3.50101 28.744 3.84399 27.453 3.99799C28.77 3.20899 29.783 1.958 30.259 0.466003C29.025 1.198 27.659 1.72899 26.206 2.01599C25.041 0.774991 23.382 0 21.545 0C17.425 0 14.396 3.84599 15.326 7.83899C10.02 7.57299 5.31499 5.031 2.16699 1.168C0.493992 4.038 1.29901 7.79299 4.14301 9.69299C3.09601 9.65999 2.11 9.37201 1.25 8.89401C1.181 11.853 3.301 14.619 6.371 15.236C5.472 15.481 4.488 15.536 3.489 15.345C4.3 17.882 6.658 19.727 9.452 19.779C6.768 21.882 3.387 22.821 0 22.421Z" fill="black"/>
</svg>
