<svg width="31" height="31" viewBox="0 0 31 31" fill="none" xmlns="http://www.w3.org/2000/svg">
<path fill-rule="evenodd" clip-rule="evenodd" d="M30.9892 14.7161C30.7827 6.55309 24.0571 0 15.779 0C7.60072 0 0.931849 6.40336 0.576529 14.4381C0.569677 14.6583 0.562818 14.8795 0.562818 15.1007C0.562818 17.9574 1.36057 20.6213 2.74269 22.9006L0 31L8.42783 28.3214C10.6077 29.5183 13.1155 30.2024 15.7799 30.2024C24.1872 30.2024 30.9971 23.4428 30.9971 15.1017C30.9971 14.9715 30.9971 14.8443 30.9892 14.7161ZM15.779 27.7929C13.1792 27.7929 10.7634 27.0237 8.74009 25.6917L3.82433 27.2586L5.41985 22.5434C3.88796 20.4491 2.98349 17.8781 2.98349 15.0997C2.98349 14.6867 3.00503 14.2737 3.04712 13.8676C3.67456 7.44269 9.14533 2.40651 15.778 2.40651C22.4958 2.40651 28.0174 7.5709 28.5303 14.1093C28.5587 14.4372 28.5734 14.765 28.5734 15.0997C28.5744 22.102 22.8325 27.7929 15.779 27.7929Z" fill="black"/>
<path fill-rule="evenodd" clip-rule="evenodd" d="M22.7543 18.1492C22.3764 17.9643 20.546 17.0669 20.2034 16.9455C19.8608 16.8173 19.6122 16.7605 19.3626 17.1305C19.113 17.5004 18.3935 18.3342 18.1801 18.5759C17.9599 18.8255 17.7455 18.8539 17.3687 18.6689C16.9977 18.4839 15.7937 18.0993 14.3695 16.831C13.2654 15.8553 12.5097 14.6447 12.2963 14.2738C12.0829 13.9038 12.2748 13.7042 12.4607 13.5192C12.632 13.3479 12.8317 13.0847 13.0236 12.8714C13.0735 12.8068 13.1166 12.75 13.1587 12.6932C13.2438 12.5582 13.3084 12.4299 13.3936 12.2518C13.5218 12.0033 13.4582 11.7889 13.3652 11.604C13.2722 11.419 12.5244 9.59577 12.2111 8.85394C11.9047 8.1131 11.5915 8.2413 11.3703 8.2413C11.1559 8.2413 10.9073 8.20605 10.6577 8.20605C10.4081 8.20605 10.0019 8.29905 9.66027 8.66898C9.31865 9.03989 8.35645 9.93732 8.35645 11.7606C8.35645 12.1882 8.43474 12.6149 8.54828 13.0221C8.92612 14.3256 9.73858 15.4012 9.88051 15.5861C10.0655 15.8279 12.4598 19.6887 16.2498 21.1772C20.0468 22.6521 20.0468 22.1598 20.731 22.0962C21.4152 22.0384 22.9393 21.2056 23.2456 20.3366C23.5599 19.4744 23.5599 18.7335 23.4669 18.5769C23.3739 18.4272 23.1243 18.3342 22.7543 18.1492Z" fill="black"/>
</svg>
